<?xml version="1.0" encoding="utf-8"?>
<!-- Generator: Adobe Illustrator 17.1.0, SVG Export Plug-In . SVG Version: 6.00 Build 0)  -->
<!DOCTYPE svg PUBLIC "-//W3C//DTD SVG 1.1//EN" "http://www.w3.org/Graphics/SVG/1.1/DTD/svg11.dtd">
<svg version="1.1" xmlns="http://www.w3.org/2000/svg" xmlns:xlink="http://www.w3.org/1999/xlink" x="0px" y="0px" width="24px"
	 height="24px" viewBox="0 0 24 24" enable-background="new 0 0 24 24" xml:space="preserve">
<g id="Filled_Icons">
	<g>
		<path d="M0,12.5c0,1.083,0.336,1.73,1,1.932V19h4v-4.568c0.663-0.202,0.998-0.849,1-1.932V9H0V12.5z"/>
		<path d="M18,9v3.5c0,1.083,0.336,1.73,1,1.932V19h4v-4.568c0.663-0.202,0.999-0.849,1-1.932V9H18z"/>
		<path d="M8,14.5c0,1.208,0.86,2.218,2,2.45V23h4v-6.05c1.14-0.232,2-1.242,2-2.45V9H8V14.5z"/>
		<circle cx="21" cy="6" r="2"/>
		<circle cx="3" cy="6" r="2"/>
		<circle cx="12" cy="5" r="3"/>
	</g>
</g>
<g id="Outline_Icons" display="none">
	<g display="inline">
		<path fill="none" stroke="#000000" stroke-linejoin="round" stroke-miterlimit="10" d="M0.5,9.5v3c0,0.825,0.175,1.5,1,1.5v4.5h3
			V14c0.824,0,0.999-0.676,1-1.5v-3H0.5z"/>
		<path fill="none" stroke="#000000" stroke-linejoin="round" stroke-miterlimit="10" d="M18.5,9.5v3c0,0.825,0.175,1.5,1,1.5v4.5h3
			V14c0.824,0,0.999-0.676,1-1.5v-3H18.5z"/>
		<path fill="none" stroke="#000000" stroke-linejoin="round" stroke-miterlimit="10" d="M8.5,9.5h7v5c0,1.1-0.9,2-2,2v6h-3v-6
			c-1.101,0-2-0.9-2-2V9.5z"/>
		<path fill="none" stroke="#000000" stroke-linejoin="round" stroke-miterlimit="10" d="M4.5,6c0,0.828-0.672,1.5-1.5,1.5l0,0
			C2.172,7.5,1.5,6.828,1.5,6l0,0c0-0.828,0.672-1.5,1.5-1.5l0,0C3.828,4.5,4.5,5.172,4.5,6L4.5,6z"/>
		<path fill="none" stroke="#000000" stroke-linejoin="round" stroke-miterlimit="10" d="M22.5,6c0,0.828-0.672,1.5-1.5,1.5l0,0
			c-0.828,0-1.5-0.672-1.5-1.5l0,0c0-0.828,0.672-1.5,1.5-1.5l0,0C21.828,4.5,22.5,5.172,22.5,6L22.5,6z"/>
		<path fill="none" stroke="#000000" stroke-linejoin="round" stroke-miterlimit="10" d="M14.5,5c0,1.381-1.119,2.5-2.5,2.5l0,0
			c-1.381,0-2.5-1.119-2.5-2.5l0,0c0-1.381,1.119-2.5,2.5-2.5l0,0C13.381,2.5,14.5,3.619,14.5,5L14.5,5z"/>
	</g>
</g>
</svg>
