<?xml version="1.0" encoding="utf-8"?>
<!-- Generator: Adobe Illustrator 16.0.0, SVG Export Plug-In . SVG Version: 6.00 Build 0)  -->
<!DOCTYPE svg PUBLIC "-//W3C//DTD SVG 1.1//EN" "http://www.w3.org/Graphics/SVG/1.1/DTD/svg11.dtd">
<svg version="1.1" id="Filled_Icons" xmlns="http://www.w3.org/2000/svg" xmlns:xlink="http://www.w3.org/1999/xlink" x="0px"
	 y="0px" width="24px" height="24px" viewBox="0 0 24 24" enable-background="new 0 0 24 24" xml:space="preserve">
<g>
	<path d="M6.956,23.502c0-0.905,0.259-1.743,0.678-2.479c-0.404-0.512-0.922-0.931-1.524-1.202c0.517-0.458,0.85-1.12,0.85-1.863
		c0-1.378-1.122-2.5-2.5-2.5s-2.5,1.122-2.5,2.5c0,0.742,0.332,1.403,0.848,1.861c-1.407,0.634-2.393,2.042-2.393,3.683
		c0,0.276,0.224,0.5,0.5,0.5h6.042V23.502z"/>
	<path d="M23.501,23.353c-0.058-1.576-1.027-2.917-2.392-3.531c0.517-0.458,0.85-1.12,0.85-1.863c0-1.378-1.122-2.5-2.5-2.5
		s-2.5,1.122-2.5,2.5c0,0.742,0.332,1.403,0.848,1.861c-0.578,0.26-1.078,0.656-1.475,1.141c0.442,0.749,0.713,1.611,0.713,2.542
		v0.5h5.959c0.006,0,0.013,0,0.02,0c0.276,0,0.5-0.224,0.5-0.5C23.524,23.45,23.516,23.4,23.501,23.353z"/>
	<path d="M19.5,12h-7v-1h3.938c0.007,0,0.013,0,0.02,0c0.276,0,0.5-0.224,0.5-0.5c0-0.051-0.008-0.101-0.022-0.148
		C16.878,8.366,15.64,6.671,13.9,5.943c0.829-0.595,1.374-1.56,1.374-2.654c0-1.805-1.469-3.273-3.274-3.273
		c-1.805,0-3.273,1.469-3.273,3.273c0,1.095,0.545,2.061,1.374,2.655C8.318,6.689,7.063,8.45,7.063,10.5c0,0.276,0.224,0.5,0.5,0.5
		H11.5v1h-7C4.224,12,4,12.224,4,12.5v0.979c0,0.276,0.224,0.5,0.5,0.5s0.5-0.224,0.5-0.5V13h6.5v0.479c0,0.276,0.224,0.5,0.5,0.5
		s0.5-0.224,0.5-0.5V13H19v0.479c0,0.276,0.224,0.5,0.5,0.5s0.5-0.224,0.5-0.5V12.5C20,12.224,19.776,12,19.5,12z"/>
	<path d="M16.042,23.353c-0.058-1.576-1.027-2.917-2.392-3.531c0.517-0.458,0.85-1.12,0.85-1.863c0-1.378-1.122-2.5-2.5-2.5
		s-2.5,1.122-2.5,2.5c0,0.743,0.332,1.403,0.848,1.861c-1.406,0.634-2.392,2.042-2.392,3.683c0,0.276,0.224,0.5,0.5,0.5h7.089
		c0.007,0,0.014,0,0.02,0c0.276,0,0.5-0.224,0.5-0.5C16.065,23.45,16.057,23.4,16.042,23.353z"/>
</g>
</svg>
